<svg width="654" height="285" viewBox="0 0 654 285" fill="none" xmlns="http://www.w3.org/2000/svg">
<g clip-path="url(#clip0_4_2)">
<rect width="654" height="285" fill="#15171A"/>
<rect x="8.53553" y="50.3345" width="28" height="28" transform="rotate(-45 8.53553 50.3345)" stroke="#F4224E" stroke-width="5"/>
<rect x="94.5355" y="73.3345" width="28" height="28" transform="rotate(-45 94.5355 73.3345)" stroke="#FFC250" stroke-width="5"/>
<rect x="180.536" y="50.3345" width="28" height="28" transform="rotate(-45 180.536 50.3345)" stroke="#49B329" stroke-width="5"/>
<rect x="266.536" y="73.3345" width="28" height="28" transform="rotate(-45 266.536 73.3345)" stroke="#0064E6" stroke-width="5"/>
<rect x="352.536" y="50.3345" width="28" height="28" transform="rotate(-45 352.536 50.3345)" stroke="#F4224E" stroke-width="5"/>
<rect x="438.536" y="73.3345" width="28" height="28" transform="rotate(-45 438.536 73.3345)" stroke="#FFC250" stroke-width="5"/>
<rect x="524.536" y="50.3345" width="28" height="28" transform="rotate(-45 524.536 50.3345)" stroke="#49B329" stroke-width="5"/>
<rect x="610.536" y="73.3345" width="28" height="28" transform="rotate(-45 610.536 73.3345)" stroke="#0064E6" stroke-width="5"/>
<rect x="-1.46447" y="142.389" width="19.5917" height="19.5917" transform="rotate(-45 -1.46447 142.389)" stroke="#F4224E" stroke-width="5"/>
<rect x="61.5058" y="142.389" width="19.5917" height="19.5917" transform="rotate(-45 61.5058 142.389)" stroke="#FFC250" stroke-width="5"/>
<rect x="124.476" y="142.389" width="19.5917" height="19.5917" transform="rotate(-45 124.476 142.389)" stroke="#49B329" stroke-width="5"/>
<rect x="187.446" y="142.389" width="19.5917" height="19.5917" transform="rotate(-45 187.446 142.389)" stroke="#0064E6" stroke-width="5"/>
<rect x="250.417" y="142.389" width="19.5917" height="19.5917" transform="rotate(-45 250.417 142.389)" stroke="#F4224E" stroke-width="5"/>
<rect x="313.387" y="142.389" width="19.5917" height="19.5917" transform="rotate(-45 313.387 142.389)" stroke="#FFC250" stroke-width="5"/>
<rect x="376.357" y="142.389" width="19.5917" height="19.5917" transform="rotate(-45 376.357 142.389)" stroke="#49B329" stroke-width="5"/>
<rect x="439.328" y="142.389" width="19.5917" height="19.5917" transform="rotate(-45 439.328 142.389)" stroke="#0064E6" stroke-width="5"/>
<rect x="502.298" y="142.389" width="19.5917" height="19.5917" transform="rotate(-45 502.298 142.389)" stroke="#F4224E" stroke-width="5"/>
<rect x="565.268" y="142.389" width="19.5917" height="19.5917" transform="rotate(-45 565.268 142.389)" stroke="#FFC250" stroke-width="5"/>
<rect x="628.238" y="142.389" width="19.5917" height="19.5917" transform="rotate(-45 628.238 142.389)" stroke="#49B329" stroke-width="5"/>
<rect x="-3.53553" width="28" height="28" transform="matrix(-0.707107 -0.707107 -0.707107 0.707107 650.634 210.835)" stroke="#F4224E" stroke-width="5"/>
<rect x="-3.53553" width="28" height="28" transform="matrix(-0.707107 -0.707107 -0.707107 0.707107 564.634 233.835)" stroke="#FFC250" stroke-width="5"/>
<rect x="-3.53553" width="28" height="28" transform="matrix(-0.707107 -0.707107 -0.707107 0.707107 478.634 210.835)" stroke="#49B329" stroke-width="5"/>
<rect x="-3.53553" width="28" height="28" transform="matrix(-0.707107 -0.707107 -0.707107 0.707107 392.634 233.835)" stroke="#0064E6" stroke-width="5"/>
<rect x="-3.53553" width="28" height="28" transform="matrix(-0.707107 -0.707107 -0.707107 0.707107 306.634 210.835)" stroke="#F4224E" stroke-width="5"/>
<rect x="-3.53553" width="28" height="28" transform="matrix(-0.707107 -0.707107 -0.707107 0.707107 220.634 233.835)" stroke="#FFC250" stroke-width="5"/>
<rect x="-3.53553" width="28" height="28" transform="matrix(-0.707107 -0.707107 -0.707107 0.707107 134.634 210.835)" stroke="#49B329" stroke-width="5"/>
<rect x="-3.53553" width="28" height="28" transform="matrix(-0.707107 -0.707107 -0.707107 0.707107 48.6335 233.835)" stroke="#0064E6" stroke-width="5"/>
</g>
<defs>
<clipPath id="clip0_4_2">
<rect width="654" height="285" fill="white"/>
</clipPath>
</defs>
</svg>
