<svg width="315" height="158" viewBox="0 0 315 158" fill="none" xmlns="http://www.w3.org/2000/svg">
<g clip-path="url(#clip0_2_2)">
<rect width="315" height="158" fill="#313440"/>
<path d="M-21 31.3506C9.20511 37.3493 46.0331 38.0553 73.8198 32.4604C101.844 26.0706 118.313 25.305 149.978 32.4604C177.759 39.301 195.161 40.3727 232.693 32.4604C266.877 23.8383 294.247 26.2721 326 33.8872" stroke="#BCAB6F" stroke-width="3"/>
<path d="M-29 46.3506C1.20511 52.3493 38.0331 53.0553 65.8198 47.4604C93.8435 41.0706 110.313 40.305 141.978 47.4604C169.759 54.301 187.161 55.3727 224.693 47.4604C258.877 38.8383 286.247 41.2721 318 48.8872" stroke="#BCAB6F" stroke-width="3"/>
<path d="M-20 16.3506C10.2051 22.3493 47.0331 23.0553 74.8198 17.4604C102.844 11.0706 119.313 10.305 150.978 17.4604C178.759 24.301 196.161 25.3727 233.693 17.4604C267.877 8.83829 295.247 11.2721 327 18.8872" stroke="#BCAB6F" stroke-width="3"/>
<path d="M-21 75.3506C9.20511 81.3493 46.0331 82.0553 73.8198 76.4604C101.844 70.0706 118.313 69.305 149.978 76.4604C177.759 83.301 195.161 84.3727 232.693 76.4604C266.877 67.8383 294.247 70.2721 326 77.8872" stroke="#BCAB6F" stroke-width="3"/>
<path d="M-29 90.3506C1.20511 96.3493 38.0331 97.0553 65.8198 91.4604C93.8435 85.0706 110.313 84.305 141.978 91.4604C169.759 98.301 187.161 99.3727 224.693 91.4604C258.877 82.8383 286.247 85.2721 318 92.8872" stroke="#BCAB6F" stroke-width="3"/>
<path d="M-20 60.3506C10.2051 66.3493 47.0331 67.0553 74.8198 61.4604C102.844 55.0706 119.313 54.305 150.978 61.4604C178.759 68.301 196.161 69.3727 233.693 61.4604C267.877 52.8383 295.247 55.2721 327 62.8872" stroke="#BCAB6F" stroke-width="3"/>
<path d="M-22 119.351C8.20511 125.349 45.0331 126.055 72.8198 120.46C100.844 114.071 117.313 113.305 148.978 120.46C176.759 127.301 194.161 128.373 231.693 120.46C265.877 111.838 293.247 114.272 325 121.887" stroke="#BCAB6F" stroke-width="3"/>
<path d="M-30 134.351C0.205113 140.349 37.0331 141.055 64.8198 135.46C92.8435 129.071 109.313 128.305 140.978 135.46C168.759 142.301 186.161 143.373 223.693 135.46C257.877 126.838 285.247 129.272 317 136.887" stroke="#BCAB6F" stroke-width="3"/>
<path d="M-21 104.351C9.20511 110.349 46.0331 111.055 73.8198 105.46C101.844 99.0706 118.313 98.305 149.978 105.46C177.759 112.301 195.161 113.373 232.693 105.46C266.877 96.8383 294.247 99.2721 326 106.887" stroke="#BCAB6F" stroke-width="3"/>
</g>
<defs>
<clipPath id="clip0_2_2">
<rect width="315" height="158" fill="white"/>
</clipPath>
</defs>
</svg>
